<svg width="91" height="79" xmlns="http://www.w3.org/2000/svg" xmlns:xlink="http://www.w3.org/1999/xlink"><svg width="90.06" height="14.59" viewBox="-1 -1 90.06 14.59" xmlns="http://www.w3.org/2000/svg"><path data-name="CONOCE MÁS" d="M6.888 10.001a.836.836 0 00-.174.11 2.6 2.6 0 01-.393.3 1.936 1.936 0 01-.414.187 2.531 2.531 0 01-.474.1 4.8 4.8 0 01-.561.03 2.441 2.441 0 01-1-.207 2.358 2.358 0 01-.818-.6 2.937 2.937 0 01-.554-.978 4.023 4.023 0 01-.2-1.328 4.359 4.359 0 01.183-1.318 2.8 2.8 0 01.521-.975 2.247 2.247 0 01.8-.6 2.487 2.487 0 011.025-.207 3.112 3.112 0 01.617.054 2.751 2.751 0 01.46.13 2.008 2.008 0 01.341.167l.264.167c.08.051.155.094.226.13a.5.5 0 00.227.053.447.447 0 00.281-.077.961.961 0 00.173-.17l.761-1.021a4.072 4.072 0 00-.627-.521 4.127 4.127 0 00-.774-.41 5.049 5.049 0 00-.905-.267 5.293 5.293 0 00-1.031-.1 5.148 5.148 0 00-1.969.367 4.49 4.49 0 00-1.535 1.028 4.658 4.658 0 00-1 1.572 5.474 5.474 0 00-.354 2 5.791 5.791 0 00.328 1.979 4.566 4.566 0 00.937 1.575 4.306 4.306 0 001.489 1.042 4.99 4.99 0 001.985.377 5.157 5.157 0 002.093-.391 3.715 3.715 0 001.472-1.158l-.895-.941a.435.435 0 00-.153-.1.451.451 0 00-.352.001zm11.437-4.349A4.7 4.7 0 0017.3 4.077a4.758 4.758 0 00-1.592-1.051 5.366 5.366 0 00-2.066-.384 5.433 5.433 0 00-2.069.381 4.742 4.742 0 00-1.6 1.048 4.658 4.658 0 00-1.028 1.575 5.47 5.47 0 000 3.924 4.641 4.641 0 002.626 2.63 5.8 5.8 0 004.135 0 4.638 4.638 0 002.617-2.63 5.468 5.468 0 00.002-3.918zm-2.133 3.261a2.749 2.749 0 01-.537.978 2.3 2.3 0 01-.858.611 3 3 0 01-1.155.21 3.035 3.035 0 01-1.164-.21 2.279 2.279 0 01-.861-.611 2.751 2.751 0 01-.538-.978 4.646 4.646 0 010-2.6 2.751 2.751 0 01.538-.978 2.3 2.3 0 01.861-.614 3 3 0 011.164-.214 2.958 2.958 0 011.155.214 2.318 2.318 0 01.858.614 2.749 2.749 0 01.537.978 4.623 4.623 0 010 2.6zm10.192-6.164v5.146c0 .156 0 .322.014.5s.024.357.046.544l-4.625-5.84a1.732 1.732 0 00-.167-.18.6.6 0 00-.154-.1.642.642 0 00-.18-.05 1.906 1.906 0 00-.247-.013h-1.188v9.725h1.986V7.268c0-.142 0-.295-.01-.457s-.019-.331-.037-.5l4.586 5.8a1.061 1.061 0 00.35.29 1.018 1.018 0 00.438.084h1.173V2.744H26.38zm12.919 2.9a4.7 4.7 0 00-1.025-1.575 4.758 4.758 0 00-1.592-1.051 5.364 5.364 0 00-2.065-.384 5.435 5.435 0 00-2.07.381 4.742 4.742 0 00-1.6 1.048 4.658 4.658 0 00-1.028 1.575 5.47 5.47 0 000 3.924 4.641 4.641 0 002.626 2.63 5.8 5.8 0 004.135 0 4.638 4.638 0 002.617-2.63 5.454 5.454 0 00.002-3.915zM37.17 8.91a2.734 2.734 0 01-.537.978 2.3 2.3 0 01-.858.611 2.994 2.994 0 01-1.154.21 3.037 3.037 0 01-1.165-.21 2.279 2.279 0 01-.861-.611 2.734 2.734 0 01-.537-.978 4.623 4.623 0 010-2.6 2.734 2.734 0 01.537-.978 2.3 2.3 0 01.861-.614 3 3 0 011.165-.214 2.957 2.957 0 011.154.214 2.318 2.318 0 01.858.614 2.734 2.734 0 01.537.978 4.623 4.623 0 01-.001 2.603zm10.052 1.088a.8.8 0 00-.173.11 2.659 2.659 0 01-.394.3 1.936 1.936 0 01-.414.187 2.531 2.531 0 01-.474.1 4.8 4.8 0 01-.561.03 2.444 2.444 0 01-1-.207 2.345 2.345 0 01-.817-.6 2.9 2.9 0 01-.554-.978 4 4 0 01-.2-1.328 4.327 4.327 0 01.184-1.318 2.786 2.786 0 01.52-.975 2.247 2.247 0 01.8-.6 2.487 2.487 0 011.025-.207 3.1 3.1 0 01.617.054 2.792 2.792 0 01.461.13 2.033 2.033 0 01.34.167l.264.167a2.52 2.52 0 00.227.13.492.492 0 00.227.053.446.446 0 00.28-.077.93.93 0 00.173-.17l.761-1.021a4.072 4.072 0 00-.627-.521 4.127 4.127 0 00-.774-.41 5.049 5.049 0 00-.9-.267 5.285 5.285 0 00-1.031-.1 5.152 5.152 0 00-1.969.367 4.49 4.49 0 00-1.535 1.028 4.658 4.658 0 00-1 1.572 5.474 5.474 0 00-.353 2 5.816 5.816 0 00.327 1.979 4.581 4.581 0 00.937 1.575 4.315 4.315 0 001.489 1.042 4.992 4.992 0 001.986.377 5.155 5.155 0 002.092-.391 3.709 3.709 0 001.472-1.158l-.895-.941a.435.435 0 00-.153-.1.451.451 0 00-.358.004zm8.517-5.517V2.744h-6.261v9.725h6.261v-1.736h-3.992V8.417h3.057V6.754h-3.057v-2.27h3.992zm13.415-1.735c-.1 0-.183 0-.257.007a.614.614 0 00-.2.04.433.433 0 00-.157.1.812.812 0 00-.137.2l-2.5 4.913q-.141.253-.264.534c-.082.186-.161.378-.237.574q-.114-.288-.237-.561a9.221 9.221 0 00-.257-.527l-2.5-4.933a.812.812 0 00-.137-.2.433.433 0 00-.157-.1.614.614 0 00-.2-.04c-.074 0-.16-.007-.257-.007h-1.722v9.725h1.989V6.878c0-.129-.005-.271-.014-.424s-.02-.311-.033-.471l2.592 5.016a.852.852 0 00.324.354.892.892 0 00.463.12h.313a.892.892 0 00.463-.12.852.852 0 00.324-.354l2.583-5c-.018.155-.03.309-.037.46s-.01.292-.01.421v5.593h1.989V2.744h-1.722zm5.947 6.007l.9-2.65q.1-.253.213-.6c.076-.232.147-.483.214-.755.076.267.151.515.227.745s.147.428.213.6l.9 2.663h-2.664zm2.483-6.007h-2.309l-3.765 9.725h1.759a.737.737 0 00.47-.15.814.814 0 00.264-.337l.574-1.7h3.7l.574 1.7a.877.877 0 00.274.35.764.764 0 00.474.137h1.749zm-.38-2.737c-.1 0-.193 0-.27.007a.823.823 0 00-.207.037.52.52 0 00-.167.093 1.017 1.017 0 00-.157.17l-1.262 1.8h1.509c.075 0 .143 0 .2-.007a.912.912 0 00.171-.027.624.624 0 00.153-.06.822.822 0 00.154-.113l2.156-1.9h-2.283zm10.713 3.665a3.326 3.326 0 00-.591-.431 4.359 4.359 0 00-.711-.327 4.641 4.641 0 00-.8-.207 5.417 5.417 0 00-.871-.07 3.86 3.86 0 00-1.422.244 3.169 3.169 0 00-1.048.651 2.759 2.759 0 00-.868 2 3.086 3.086 0 00.187 1.145 2.344 2.344 0 00.491.774 2.505 2.505 0 00.691.5 5.778 5.778 0 00.794.32q.406.13.794.237a4.534 4.534 0 01.691.247 1.468 1.468 0 01.491.354.813.813 0 01.187.554 1.032 1.032 0 01-.341.858 1.5 1.5 0 01-.954.27 2.207 2.207 0 01-.788-.127 3.741 3.741 0 01-.591-.28c-.171-.1-.325-.2-.46-.281a.766.766 0 00-.4-.126.552.552 0 00-.284.076.679.679 0 00-.21.191l-.667 1.054a3.533 3.533 0 00.674.521 5.327 5.327 0 00.827.4 5.533 5.533 0 00.911.263 4.768 4.768 0 00.925.094 4.089 4.089 0 001.478-.251 3.153 3.153 0 001.095-.687 2.944 2.944 0 00.677-1.025 3.374 3.374 0 00.234-1.261 2.592 2.592 0 00-.187-1.038 2.3 2.3 0 00-.49-.731 2.667 2.667 0 00-.7-.494 7.2 7.2 0 00-.8-.337c-.272-.1-.538-.182-.8-.26a5.33 5.33 0 01-.694-.257 1.636 1.636 0 01-.491-.334.674.674 0 01-.186-.487.919.919 0 01.31-.731 1.409 1.409 0 01.944-.27 2.055 2.055 0 01.654.1 3.355 3.355 0 01.511.217l.4.217a.686.686 0 00.33.1.475.475 0 00.284-.08.861.861 0 00.21-.24z" fill="#fff" fill-rule="evenodd"/></svg><svg width="80.31" height="18.31" viewBox="-1 -1 80.31 18.31" y="60.27" xmlns="http://www.w3.org/2000/svg"><path d="M11.203 16.035L8.029 9.5a3.957 3.957 0 002.4-3.946 6.367 6.367 0 00-.344-2.141 4.064 4.064 0 00-1.1-1.66A5.2 5.2 0 007.033.678 9.574 9.574 0 004.12.292H.011v15.744H4.25V9.584l2.36 6.452h4.594zM4.25 7.516V3.778h.292a1.639 1.639 0 011.274.48 1.974 1.974 0 01.438 1.378 2.014 2.014 0 01-.438 1.389 1.62 1.62 0 01-1.274.491h-.293zm8.164 8.519h7.893v-3.779h-3.655v-2.4h3.279v-3.57h-3.279v-2.3h3.654v-3.7h-7.893V16.03zm9.167-5.325v4.928a8.7 8.7 0 003.195.669 5.087 5.087 0 002.015-.4 4.538 4.538 0 001.587-1.117 5.341 5.341 0 001.034-1.692 5.883 5.883 0 00.376-2.14 4.657 4.657 0 00-.585-2.37A6.823 6.823 0 0027.281 6.6l-.689-.5a1.682 1.682 0 01-.856-1.253.87.87 0 01.324-.679 1.18 1.18 0 01.8-.282 2.242 2.242 0 011.3.47 4.694 4.694 0 011.18 1.263v-4.8A6.5 6.5 0 0026.299 0a4.415 4.415 0 00-1.879.407 4.838 4.838 0 00-1.524 1.107 5.117 5.117 0 00-1.013 1.639 5.544 5.544 0 00-.366 2.026 4.621 4.621 0 00.6 2.349 7.558 7.558 0 001.973 2.1l.689.542a1.655 1.655 0 01.752 1.232.919.919 0 01-.345.731 1.324 1.324 0 01-.887.293 3.5 3.5 0 01-2.718-1.716zm13.906 5.325v-5.158h.668a7.436 7.436 0 002.506-.375 4.533 4.533 0 001.723-1.065 4.153 4.153 0 00.992-1.65 6.841 6.841 0 00.313-2.13 6.434 6.434 0 00-.355-2.182 4.115 4.115 0 00-1.128-1.691 5.444 5.444 0 00-1.963-1.1 9.19 9.19 0 00-2.882-.4h-4.114v15.744h4.239zm0-8.645V3.778h.4a1.4 1.4 0 011.2.553 2.109 2.109 0 01.407 1.284 1.811 1.811 0 01-.449 1.3 1.529 1.529 0 01-1.159.47h-.4zm11.714 8.645V.291h-4.24v15.744H47.2zm13.2 0L57.223 9.5a3.957 3.957 0 002.4-3.946 6.367 6.367 0 00-.344-2.141 4.065 4.065 0 00-1.1-1.66A5.2 5.2 0 0056.227.678a9.575 9.575 0 00-2.913-.386h-4.11v15.744h4.239V9.584l2.36 6.452h4.594zm-6.953-8.519V3.778h.292a1.638 1.638 0 011.274.48 1.974 1.974 0 01.439 1.378 2.014 2.014 0 01-.439 1.389 1.62 1.62 0 01-1.274.491h-.297zm19.461 8.519L69.291.291h-5.053l-3.633 15.744h4.385l.355-2h2.819l.355 2h4.385zm-5.241-5.366h-1.822l.647-4.239q.063-.4.115-.94t.157-1.441q.1.9.167 1.441t.125.94zm5.888 3.215a2.293 2.293 0 00.188.93 2.439 2.439 0 001.263 1.263 2.39 2.39 0 001.858 0 2.44 2.44 0 001.263-1.263 2.393 2.393 0 000-1.859 2.43 2.43 0 00-1.263-1.263 2.39 2.39 0 00-1.858 0 2.43 2.43 0 00-1.263 1.263 2.285 2.285 0 00-.194.929z" fill="#fff" fill-rule="evenodd"/></svg><svg width="83.41" height="22.84" viewBox="-1 -1 83.41 22.84" y="37.43" xmlns="http://www.w3.org/2000/svg"><path d="M.011 20.566h7.893v-3.779H4.249v-2.4h3.278v-3.57H4.249v-2.3h3.654v-3.7H.011v15.744zm9.17-5.325v4.928a8.7 8.7 0 003.195.669 5.087 5.087 0 002.015-.4 4.536 4.536 0 001.587-1.117 5.341 5.341 0 001.034-1.692 5.881 5.881 0 00.376-2.14 4.656 4.656 0 00-.585-2.37 6.823 6.823 0 00-1.922-1.988l-.689-.5a1.682 1.682 0 01-.856-1.253.87.87 0 01.324-.679 1.18 1.18 0 01.8-.282 2.243 2.243 0 011.305.47 4.7 4.7 0 011.18 1.263v-4.8a6.5 6.5 0 00-3.049-.819 4.415 4.415 0 00-1.879.407 4.837 4.837 0 00-1.524 1.107A5.117 5.117 0 009.48 7.684a5.544 5.544 0 00-.365 2.026 4.622 4.622 0 00.6 2.349 7.557 7.557 0 001.973 2.1l.689.542a1.655 1.655 0 01.752 1.232.919.919 0 01-.345.731 1.324 1.324 0 01-.887.293 3.5 3.5 0 01-2.716-1.716zm15.222 5.325V8.601h2.4V4.822h-9.065v3.779h2.4v11.965h4.26zm7.538 0V4.822h-4.244v15.744h4.239zm.94-20.568h-3.32l-1.044 3.571h2.38zm12.257 20.568l-3.179-6.535a3.957 3.957 0 002.4-3.946 6.367 6.367 0 00-.344-2.141 4.064 4.064 0 00-1.1-1.66 5.2 5.2 0 00-1.952-1.075 9.574 9.574 0 00-2.913-.386h-4.109v15.744h4.24v-6.452l2.36 6.452h4.594zm-6.957-8.519V8.309h.292a1.639 1.639 0 011.274.48 1.974 1.974 0 01.438 1.378 2.014 2.014 0 01-.438 1.389 1.62 1.62 0 01-1.274.491h-.292zm19.461 8.519L54.03 4.822h-5.056l-3.633 15.744h4.385l.355-2H52.9l.355 2h4.385zM52.401 15.2h-1.82l.647-4.239q.063-.4.115-.94T51.5 8.58q.1.9.167 1.441t.125.94zm11.8 5.366V8.601h2.4V4.822h-9.066v3.779h2.4v11.965h4.26zm3.3 0h7.893v-3.779h-3.66v-2.4h3.278v-3.57h-3.278v-2.3h3.654v-3.7h-7.893v15.744zm9.145-2.151a2.293 2.293 0 00.188.93 2.439 2.439 0 001.263 1.263 2.39 2.39 0 001.858 0 2.428 2.428 0 00.752-.512 2.453 2.453 0 00.512-.751 2.4 2.4 0 000-1.859 2.432 2.432 0 00-1.264-1.263 2.39 2.39 0 00-1.858 0 2.43 2.43 0 00-1.263 1.263 2.285 2.285 0 00-.193.929z" fill="#fff" fill-rule="evenodd"/></svg><svg width="86.75" height="22.84" viewBox="-1 -1 86.75 22.84" y="14.59" xmlns="http://www.w3.org/2000/svg"><path d="M16.61 20.566L15.065 4.822H9.824l-1.086 5.7q-.1.606-.2 1.274t-.157 1.4q-.063-.751-.125-1.41t-.167-1.263l-.961-5.7H1.847L.009 20.567h4.51l.355-7.183.083-1.43q.041-.7.063-1.431.063.835.167 1.587t.209 1.441l1.128 7.016H9.99l1.336-7.016q.125-.689.24-1.441t.177-1.587q.041.73.052 1.431t.052 1.43l.313 7.183h4.448zM28.95 4.822h-4.26V14.97a3.362 3.362 0 01-.23 1.472.863.863 0 01-.835.428.911.911 0 01-.856-.428 3.113 3.113 0 01-.251-1.472V4.822h-4.262v10.524a6.558 6.558 0 00.4 2.38 4.8 4.8 0 001.1 1.712 4.564 4.564 0 001.691 1.045 6.451 6.451 0 002.182.355 6.362 6.362 0 002.172-.355 4.578 4.578 0 001.681-1.045 4.685 4.685 0 001.086-1.712 6.716 6.716 0 00.386-2.38V4.822zm2 15.744h7.893v-3.779h-3.65v-2.4h3.278v-3.57h-3.278v-2.3h3.654v-3.7h-7.891v15.744zm6.6-20.568h-3.32l-1.044 3.571h2.38zm10.064 20.568l3.967-15.744h-4.465l-.773 4.489-.48 2.746q-.25 1.43-.4 3.038-.146-1.608-.4-3.038t-.48-2.746l-.773-4.489h-4.462l3.947 15.744h4.322zm4.865 0h7.893v-3.779h-3.651v-2.4h3.278v-3.57h-3.278v-2.3h3.654v-3.7h-7.893v15.744zm15.055 0V8.601h2.4V4.822h-9.058v3.779h2.4v11.965h4.26zm3.3 0h7.893v-3.779h-3.652v-2.4h3.281v-3.57h-3.281v-2.3h3.654v-3.7h-7.893v15.744zm9.146-2.151a2.3 2.3 0 00.188.93 2.441 2.441 0 001.264 1.263 2.389 2.389 0 001.858 0 2.435 2.435 0 001.263-1.263 2.392 2.392 0 000-1.859 2.425 2.425 0 00-1.263-1.263 2.389 2.389 0 00-1.858 0 2.432 2.432 0 00-1.264 1.263 2.287 2.287 0 00-.187.929z" fill="#fff" fill-rule="evenodd"/></svg></svg>