<svg width="143" height="119" xmlns="http://www.w3.org/2000/svg" xmlns:xlink="http://www.w3.org/1999/xlink"><svg width="105.94" height="16.84" viewBox="-1 -1 105.94 16.84" y="102" xmlns="http://www.w3.org/2000/svg"><path data-name="CONOCE MÁS copia" d="M8.134 11.789a.974.974 0 00-.205.13 3.118 3.118 0 01-.465.351 2.3 2.3 0 01-.489.221 3.035 3.035 0 01-.559.118 5.809 5.809 0 01-.662.035 2.885 2.885 0 01-1.182-.244 2.782 2.782 0 01-.965-.713 3.439 3.439 0 01-.654-1.154 4.741 4.741 0 01-.24-1.569 5.151 5.151 0 01.216-1.556 3.308 3.308 0 01.615-1.15 2.629 2.629 0 01.945-.713 2.937 2.937 0 011.21-.245 3.714 3.714 0 01.729.064 3.369 3.369 0 01.543.153 2.43 2.43 0 01.4.2l.312.2a2.76 2.76 0 00.267.154.593.593 0 00.268.063.528.528 0 00.331-.091 1.117 1.117 0 00.2-.2l.9-1.205a4.767 4.767 0 00-.74-.615 4.843 4.843 0 00-.914-.484 6.016 6.016 0 00-1.068-.316 6.218 6.218 0 00-1.217-.114 6.084 6.084 0 00-2.325.433 5.285 5.285 0 00-1.812 1.214A5.48 5.48 0 00.399 6.612a6.451 6.451 0 00-.418 2.359 6.878 6.878 0 00.386 2.337 5.424 5.424 0 001.107 1.859 5.078 5.078 0 001.758 1.23 5.9 5.9 0 002.344.445 6.086 6.086 0 002.47-.461 4.387 4.387 0 001.737-1.367l-1.055-1.111a.507.507 0 00-.182-.122.528.528 0 00-.189-.036.534.534 0 00-.223.044zm13.5-5.133a5.538 5.538 0 00-1.209-1.86 5.629 5.629 0 00-1.88-1.241 6.336 6.336 0 00-2.438-.453 6.425 6.425 0 00-2.443.449 5.61 5.61 0 00-1.887 1.237 5.53 5.53 0 00-1.214 1.86 6.469 6.469 0 000 4.633 5.482 5.482 0 003.1 3.1 6.857 6.857 0 004.881 0 5.469 5.469 0 003.089-3.1 6.433 6.433 0 00.002-4.625zm-2.517 3.849a3.258 3.258 0 01-.635 1.154 2.7 2.7 0 01-1.012.721 3.527 3.527 0 01-1.363.248 3.572 3.572 0 01-1.375-.248 2.69 2.69 0 01-1.017-.721 3.241 3.241 0 01-.634-1.154 5.452 5.452 0 010-3.073 3.241 3.241 0 01.634-1.154 2.721 2.721 0 011.017-.725 3.534 3.534 0 011.375-.253 3.49 3.49 0 011.363.253 2.727 2.727 0 011.012.725 3.258 3.258 0 01.635 1.154 5.475 5.475 0 01.001 3.073zm12.032-7.277v6.075q0 .276.015.587c.011.208.029.422.056.643l-5.461-6.895a2.192 2.192 0 00-.2-.213.73.73 0 00-.181-.122.756.756 0 00-.213-.059 2.175 2.175 0 00-.292-.016h-1.4v11.484h2.352V8.558q0-.252-.012-.54t-.043-.6l5.413 6.847a1.261 1.261 0 00.414.343 1.2 1.2 0 00.516.1H33.5V3.228h-2.348zm15.25 3.428a5.538 5.538 0 00-1.209-1.86 5.635 5.635 0 00-1.879-1.241 6.345 6.345 0 00-2.439-.453 6.433 6.433 0 00-2.443.449 5.63 5.63 0 00-1.887 1.237 5.513 5.513 0 00-1.213 1.86 6.455 6.455 0 000 4.633 5.477 5.477 0 003.1 3.1 6.86 6.86 0 004.882 0 5.471 5.471 0 003.088-3.1 6.433 6.433 0 00.001-4.625zm-2.517 3.849a3.256 3.256 0 01-.634 1.154 2.7 2.7 0 01-1.013.721 3.524 3.524 0 01-1.363.248 3.575 3.575 0 01-1.375-.248 2.69 2.69 0 01-1.017-.721 3.256 3.256 0 01-.634-1.154 5.452 5.452 0 010-3.073 3.256 3.256 0 01.634-1.154 2.721 2.721 0 011.017-.725 3.537 3.537 0 011.375-.253 3.487 3.487 0 011.363.253 2.731 2.731 0 011.013.725 3.256 3.256 0 01.634 1.154 5.475 5.475 0 01.001 3.073zm11.862 1.284a.966.966 0 00-.2.13 2.866 2.866 0 01-.47.351 2.274 2.274 0 01-.48.221 3.174 3.174 0 01-.56.118 5.854 5.854 0 01-.67.035 2.883 2.883 0 01-1.18-.244 2.79 2.79 0 01-.962-.713 3.439 3.439 0 01-.654-1.154 4.714 4.714 0 01-.241-1.569 5.118 5.118 0 01.217-1.556 3.276 3.276 0 01.615-1.15 2.629 2.629 0 01.945-.713 2.957 2.957 0 011.21-.245 3.725 3.725 0 01.73.064 3.109 3.109 0 01.54.153 2.129 2.129 0 01.4.2c.12.071.22.137.32.2a2.7 2.7 0 00.26.154.634.634 0 00.27.063.532.532 0 00.33-.091 1.181 1.181 0 00.21-.2l.9-1.205a5 5 0 00-.75-.615 4.575 4.575 0 00-.91-.484 6.039 6.039 0 00-1.07-.316 6.48 6.48 0 00-3.539.319 5.285 5.285 0 00-1.812 1.214 5.465 5.465 0 00-1.174 1.856 6.451 6.451 0 00-.418 2.359 6.878 6.878 0 00.386 2.337 5.393 5.393 0 001.107 1.859 5.074 5.074 0 001.757 1.23 5.9 5.9 0 002.343.445 6.066 6.066 0 002.47-.461 4.355 4.355 0 001.74-1.367l-1.06-1.111a.4.4 0 00-.18-.122.5.5 0 00-.19-.036.563.563 0 00-.229.044zm10.06-6.512V3.228h-7.39v11.484h7.39v-2.049h-4.71V9.929h3.61v-1.97h-3.61V5.28h4.71zm15.84-2.049c-.12 0-.22 0-.31.008a.818.818 0 00-.23.047.465.465 0 00-.18.122 1.065 1.065 0 00-.17.233l-2.94 5.8a6.059 6.059 0 00-.31.631c-.1.22-.2.446-.28.677-.09-.226-.19-.446-.28-.662s-.2-.422-.31-.622l-2.95-5.823a1.064 1.064 0 00-.16-.233.592.592 0 00-.19-.122.75.75 0 00-.23-.047c-.09 0-.19-.008-.3-.008h-2.04v11.483h2.35v-6.6a4.437 4.437 0 00-.02-.5l-.03-.555 3.04 5.917a1.06 1.06 0 00.39.418 1.047 1.047 0 00.54.142h.37a1.047 1.047 0 00.54-.142 1.06 1.06 0 00.39-.418l3.05-5.9c-.02.183-.04.365-.05.543s-.01.344-.01.5v6.6h2.35V3.228h-2.03zm7.02 7.092l1.05-3.128c.08-.2.17-.436.25-.71s.18-.569.26-.89c.09.315.18.608.26.879s.18.5.26.705l1.06 3.144h-3.14zm2.93-7.092h-2.73l-4.439 11.484h2.08a.851.851 0 00.55-.178.887.887 0 00.31-.4l.68-2h4.37l.67 2a1.108 1.108 0 00.33.414.9.9 0 00.56.162h2.06zm-.45-3.23c-.12 0-.23 0-.32.007a.933.933 0 00-.24.044.528.528 0 00-.2.11 1.576 1.576 0 00-.19.2l-1.49 2.128h1.78c.09 0 .17 0 .25-.008a1.387 1.387 0 00.2-.032.841.841 0 00.18-.071 1.066 1.066 0 00.18-.134l2.54-2.245h-2.69zm12.65 4.325a4.1 4.1 0 00-.7-.508 5.2 5.2 0 00-.84-.386 5.555 5.555 0 00-.95-.244 6.317 6.317 0 00-1.03-.083 4.579 4.579 0 00-1.68.288 3.658 3.658 0 00-1.23.768 3.165 3.165 0 00-.77 1.1 3.268 3.268 0 00-.26 1.261 3.569 3.569 0 00.22 1.351 2.8 2.8 0 00.58.914 2.889 2.889 0 00.82.591 6.47 6.47 0 00.93.378c.32.1.64.2.94.28a5.16 5.16 0 01.82.292 1.723 1.723 0 01.58.417.994.994 0 01.22.654 1.238 1.238 0 01-.4 1.013 1.789 1.789 0 01-1.13.319 2.591 2.591 0 01-.93-.15 4.389 4.389 0 01-.7-.331c-.2-.12-.38-.231-.54-.331a.907.907 0 00-.48-.149.629.629 0 00-.33.09.7.7 0 00-.25.225l-.79 1.245a4.106 4.106 0 00.8.614 6.241 6.241 0 00.97.477 6.575 6.575 0 001.08.311 5.524 5.524 0 001.09.111 4.9 4.9 0 001.75-.3 3.729 3.729 0 001.29-.811 3.57 3.57 0 00.8-1.21 4.064 4.064 0 00.27-1.489 3.014 3.014 0 00-.22-1.225 2.591 2.591 0 00-.58-.863 3.093 3.093 0 00-.82-.583 7.79 7.79 0 00-.94-.4c-.32-.113-.63-.215-.94-.307a6.178 6.178 0 01-.82-.3 1.913 1.913 0 01-.58-.394.782.782 0 01-.22-.575 1.072 1.072 0 01.37-.863 1.637 1.637 0 011.11-.319 2.373 2.373 0 01.77.114 4.163 4.163 0 01.61.256c.17.1.33.18.47.256a.816.816 0 00.39.115.572.572 0 00.34-.095 1.124 1.124 0 00.24-.283z" fill="#fff" fill-rule="evenodd"/></svg><svg width="131.63" height="29" viewBox="-1 -1 131.63 29" y="73" xmlns="http://www.w3.org/2000/svg"><path d="M18.536 26.543l-5.255-10.819q3.975-1.8 3.975-6.532a10.537 10.537 0 00-.57-3.543 6.739 6.739 0 00-1.815-2.748 8.623 8.623 0 00-3.232-1.78A15.881 15.881 0 006.817.482H.01v26.061h7.016v-10.68l3.906 10.68h7.6zm-11.51-14.1V6.256h.484a2.711 2.711 0 012.108.795 3.267 3.267 0 01.726 2.281 3.336 3.336 0 01-.726 2.3 2.682 2.682 0 01-2.108.812h-.484zm13.513 14.1h13.065v-6.256h-6.048v-3.975h5.425v-5.91h-5.426v-3.8h6.048V.481H20.539v26.061zm15.173-8.814v8.157A14.421 14.421 0 0041 26.992a8.4 8.4 0 003.335-.657 7.478 7.478 0 002.627-1.849 8.839 8.839 0 001.711-2.8 9.737 9.737 0 00.622-3.543 7.708 7.708 0 00-.967-3.923 11.311 11.311 0 00-3.18-3.3l-1.141-.83a2.779 2.779 0 01-1.417-2.073 1.441 1.441 0 01.536-1.124 1.952 1.952 0 011.33-.466 3.712 3.712 0 012.161.777 7.8 7.8 0 011.952 2.092v-7.95a10.759 10.759 0 00-5.046-1.348 7.3 7.3 0 00-3.111.674 7.992 7.992 0 00-2.523 1.832 8.467 8.467 0 00-1.676 2.713 9.173 9.173 0 00-.605 3.353 7.649 7.649 0 00.985 3.888 12.515 12.515 0 003.266 3.474l1.141.9a2.736 2.736 0 011.244 2.04 1.521 1.521 0 01-.57 1.209 2.19 2.19 0 01-1.469.484q-2.385-.002-4.493-2.836zm23.018 8.814v-8.537h1.106a12.277 12.277 0 004.148-.623 7.482 7.482 0 002.851-1.762 6.87 6.87 0 001.642-2.731 11.316 11.316 0 00.518-3.525 10.641 10.641 0 00-.587-3.612 6.814 6.814 0 00-1.867-2.8 8.992 8.992 0 00-3.249-1.814 15.175 15.175 0 00-4.769-.657h-6.809v26.061h7.016zm0-14.31V6.254h.657a2.31 2.31 0 011.987.916 3.491 3.491 0 01.674 2.126 3 3 0 01-.743 2.16 2.535 2.535 0 01-1.918.777h-.657zm19.389 14.31V.481h-7.016v26.061h7.016zm21.844 0l-5.254-10.819q3.975-1.8 3.975-6.532a10.537 10.537 0 00-.57-3.543 6.73 6.73 0 00-1.815-2.748 8.62 8.62 0 00-3.232-1.78 15.879 15.879 0 00-4.821-.639h-6.809v26.061h7.016v-10.68l3.906 10.68h7.6zm-11.51-14.1V6.256h.484a2.709 2.709 0 012.108.795 3.266 3.266 0 01.726 2.281 3.335 3.335 0 01-.726 2.3 2.679 2.679 0 01-2.108.812h-.484zm32.212 14.1L114.686.481h-8.365l-6.014 26.061h7.259l.587-3.318h4.666l.588 3.318h7.258zm-8.675-8.883h-3.009l1.071-7.017q.1-.656.19-1.555t.26-2.385l.276 2.385q.104.899.207 1.555zm9.746 5.323a3.792 3.792 0 00.311 1.538 4.034 4.034 0 002.091 2.091 3.958 3.958 0 003.076 0 4.034 4.034 0 002.091-2.091 3.958 3.958 0 000-3.076 4.031 4.031 0 00-2.091-2.092 3.958 3.958 0 00-3.076 0 4.031 4.031 0 00-2.091 2.092 3.788 3.788 0 00-.311 1.536z" fill="#fff" fill-rule="evenodd"/></svg><svg width="136.72" height="36.5" viewBox="-1 -1 136.72 36.5" y="36.5" xmlns="http://www.w3.org/2000/svg"><path d="M.01 34.043h13.065v-6.256H7.026v-3.975h5.426v-5.91H7.026v-3.8h6.049V7.981H.01v26.061zm15.171-8.814v8.157a14.423 14.423 0 005.288 1.106 8.4 8.4 0 003.336-.657 7.487 7.487 0 002.627-1.849 8.839 8.839 0 001.711-2.8 9.758 9.758 0 00.622-3.543 7.708 7.708 0 00-.968-3.923 11.285 11.285 0 00-3.18-3.3l-1.14-.83a2.781 2.781 0 01-1.418-2.073 1.441 1.441 0 01.536-1.124 1.954 1.954 0 011.331-.466 3.712 3.712 0 012.16.777 7.782 7.782 0 011.953 2.092v-7.95a10.759 10.759 0 00-5.046-1.348 7.3 7.3 0 00-3.111.674 7.969 7.969 0 00-2.523 1.832 8.47 8.47 0 00-1.677 2.713 9.177 9.177 0 00-.6 3.353 7.65 7.65 0 00.985 3.888 12.485 12.485 0 003.266 3.474l1.14.9a2.738 2.738 0 011.245 2.04 1.519 1.519 0 01-.571 1.209 2.187 2.187 0 01-1.468.484q-2.388-.002-4.498-2.836zm25.2 8.814V14.238h3.975V7.981h-15v6.256h3.975v19.805h7.05zm12.477 0V7.981h-7.017v26.061h7.017zM54.413-.002h-5.5l-1.728 5.91h3.94zm20.288 34.045l-5.254-10.819q3.975-1.8 3.975-6.532a10.537 10.537 0 00-.57-3.543 6.72 6.72 0 00-1.815-2.748 8.624 8.624 0 00-3.231-1.78 15.886 15.886 0 00-4.822-.639h-6.809v26.061h7.016v-10.68l3.906 10.68h7.6zm-11.51-14.1v-6.187h.484a2.712 2.712 0 012.109.795 3.27 3.27 0 01.725 2.281 3.34 3.34 0 01-.725 2.3 2.683 2.683 0 01-2.109.812h-.484zm32.212 14.1L89.421 7.981h-8.365l-6.014 26.061h7.259l.587-3.318h4.666l.588 3.318H95.4zm-8.675-8.883h-3.007l1.071-7.017q.1-.656.19-1.555t.26-2.385q.173 1.486.276 2.385t.208 1.555zm19.527 8.883V14.238h3.975V7.981h-15v6.256h3.974v19.805h7.051zm5.461 0h13.065v-6.256h-6.049v-3.975h5.426v-5.91h-5.426v-3.8h6.049V7.981h-13.068v26.061zm15.138-3.56a3.775 3.775 0 00.311 1.538 4.034 4.034 0 002.091 2.091 3.958 3.958 0 003.076 0 4.034 4.034 0 002.091-2.091 3.958 3.958 0 000-3.076 4.031 4.031 0 00-2.091-2.092 3.958 3.958 0 00-3.076 0 4.053 4.053 0 00-1.244.847 4.011 4.011 0 00-.847 1.245 3.772 3.772 0 00-.314 1.536z" fill="#fff" fill-rule="evenodd"/></svg><svg width="142.25" height="36.5" viewBox="-1 -1 142.25 36.5" xmlns="http://www.w3.org/2000/svg"><path d="M27.49 34.043L24.933 7.981h-8.676l-1.8 9.436q-.173 1-.328 2.108t-.259 2.316q-.1-1.245-.207-2.333t-.276-2.091l-1.59-9.436H3.054L.013 34.042h7.466l.588-11.89q.069-1.211.138-2.368t.1-2.367q.1 1.382.276 2.626t.346 2.385l1.867 11.614h5.738l2.212-11.614q.207-1.14.4-2.385t.294-2.626q.069 1.209.087 2.367t.086 2.368l.518 11.89h7.362zM47.916 7.981h-7.051v16.8a5.556 5.556 0 01-.38 2.436 1.426 1.426 0 01-1.382.709 1.507 1.507 0 01-1.418-.709 5.16 5.16 0 01-.414-2.436v-16.8H30.22v17.42a10.876 10.876 0 00.656 3.94 7.944 7.944 0 001.815 2.834 7.537 7.537 0 002.8 1.728 10.641 10.641 0 003.612.588 10.5 10.5 0 003.594-.588 7.565 7.565 0 002.783-1.728 7.762 7.762 0 001.8-2.834 11.13 11.13 0 00.639-3.94V7.981zm3.317 26.061h13.065v-6.256H58.25v-3.975h5.426v-5.91H58.25v-3.8h6.048v-6.12H51.233v26.061zM62.156-.003h-5.5l-1.728 5.91h3.94zm16.658 34.045l6.567-26.061h-7.4l-1.279 7.431q-.38 2.178-.8 4.545t-.657 5.029q-.242-2.661-.656-5.029t-.8-4.545L72.51 7.981h-7.4l6.533 26.061h7.154zm8.053 0h13.065v-6.256h-6.049v-3.975h5.423v-5.91h-5.427v-3.8h6.049v-6.12H86.867v26.061zm24.919 0V14.238h3.975V7.981h-15v6.256h3.975v19.805h7.05zm5.461 0h13.065v-6.256h-6.049v-3.975h5.426v-5.91h-5.426v-3.8h6.049v-6.12h-13.065v26.061zm15.138-3.56a3.775 3.775 0 00.311 1.538 4.034 4.034 0 002.091 2.091 3.958 3.958 0 003.076 0 4.034 4.034 0 002.091-2.091 3.958 3.958 0 000-3.076 4.031 4.031 0 00-2.091-2.092 3.958 3.958 0 00-3.076 0 4.053 4.053 0 00-1.244.847 4.011 4.011 0 00-.847 1.245 3.772 3.772 0 00-.311 1.537z" fill="#fff" fill-rule="evenodd"/></svg></svg>